Coordinates
version=1
nRows=16
nColumns=40
inDegrees=yes

Units are S.I. units (second, meters, Newtons, ...)
Angles are in degrees.

endheader
time	pelvis_tilt	pelvis_list	pelvis_rotation	pelvis_tx	pelvis_ty	pelvis_tz	hip_flexion_r	hip_adduction_r	hip_rotation_r	knee_angle_r	knee_angle_r_beta	ankle_angle_r	subtalar_angle_r	mtp_angle_r	hip_flexion_l	hip_adduction_l	hip_rotation_l	knee_angle_l	knee_angle_l_beta	ankle_angle_l	subtalar_angle_l	mtp_angle_l	lumbar_extension	lumbar_bending	lumbar_rotation	arm_flex_r	arm_add_r	arm_rot_r	elbow_flex_r	pro_sup_r	wrist_flex_r	wrist_dev_r	arm_flex_l	arm_add_l	arm_rot_l	elbow_flex_l	pro_sup_l	wrist_flex_l	wrist_dev_l
     25.39250000	     -7.12545526	     -5.30913225	      3.73976106	      0.76695805	      0.92751971	      0.51038650	     14.46510983	      3.44251161	    -15.90992834	     14.97650443	     14.97650443	      9.49826405	     -3.20331096	     -4.49114975	     35.46386026	    -10.82366728	      0.53905693	     51.92099936	     51.92099936	     10.83152332	    -19.15611456	     18.47763832	    -11.89312229	      6.79910366	      1.50731947	     20.54339989	    -17.64240686	     -3.21695320	     70.94697874	     44.33989084	      0.00000000	      0.00000000	     -2.30283197	    -10.16370513	     -6.13783383	     29.53292152	     46.89077282	      0.00000000	      0.00000000
     25.40557143	     -7.29502776	     -5.19474715	      4.21971752	      0.76549819	      0.92767093	      0.50965920	     14.09753033	      3.26292450	    -16.29382054	     14.66331183	     14.66331183	      9.70547541	     -3.07366967	     -4.39737291	     35.74681571	    -10.19654619	      0.74671427	     47.94563222	     47.94563222	     10.72202224	    -19.01272740	     17.13181408	    -12.04867963	      6.66644043	      1.40238788	     20.61825873	    -17.76405862	     -3.67675658	     74.45627274	     44.27856289	      0.00000000	      0.00000000	     -2.67308207	    -10.15091672	     -6.56309423	     29.54670071	     46.92027095	      0.00000000	      0.00000000
     25.41864286	     -7.59413254	     -4.99035531	      4.64006884	      0.76396315	      0.92758979	      0.50869133	     13.95361793	      2.97186502	    -16.42885818	     14.49588855	     14.49588855	      9.89396729	     -3.26971358	     -4.37749345	     36.03023884	     -9.37698557	      1.04413975	     43.82655190	     43.82655190	     10.94575433	    -18.69143135	     17.09626148	    -11.94360690	      6.41428143	      1.39366387	     21.37918466	    -18.02437127	     -3.89938325	     75.44201867	     44.26529404	      0.00000000	      0.00000000	     -2.88985644	    -10.11204692	     -6.61487133	     29.55729521	     46.91672922	      0.00000000	      0.00000000
     25.43171429	     -7.78756219	     -4.89699570	      5.04215319	      0.76263612	      0.92738968	      0.50761687	     13.76215830	      2.74025152	    -16.83622767	     14.51219201	     14.51219201	     10.25881621	     -3.02959942	     -4.22340313	     35.99065259	     -8.71743653	      1.32665117	     39.39630051	     39.39630051	     10.02447831	    -18.31652700	     14.12437174	    -12.09515811	      6.37193403	      1.61069654	     21.13641763	    -18.37041066	     -4.45190157	     79.53534982	     44.19970856	      0.00000000	      0.00000000	     -3.25924609	    -10.04980394	     -7.07376109	     30.24408279	     46.94050238	      0.00000000	      0.00000000
     25.44478571	     -7.95797027	     -4.78382903	      5.40020344	      0.76142110	      0.92713183	      0.50643162	     13.55461207	      2.51660399	    -17.00920972	     14.54688491	     14.54688491	     10.62243109	     -3.15439763	     -3.99561468	     35.81467867	     -8.05876691	      1.63499550	     34.97695320	     34.97695320	      9.24471455	    -17.62524038	     11.68106493	    -12.12050168	      6.26703337	      1.88028672	     21.49800243	    -18.63664617	     -5.14003565	     81.65165427	     44.22923625	      0.00000000	      0.00000000	     -3.36461997	     -9.95154956	     -7.19151028	     30.56546872	     46.90083590	      0.00000000	      0.00000000
     25.45785714	     -8.13403134	     -4.69560122	      5.70853453	      0.76033409	      0.92678037	      0.50519366	     13.36390132	      2.32621588	    -17.13638055	     14.60776387	     14.60776387	     10.87960225	     -3.33744129	     -4.04564094	     35.71324525	     -7.47727361	      1.92860194	     30.99261091	     30.99261091	      9.45913821	    -16.28553106	     11.73197252	    -12.08628040	      6.18981842	      1.78574846	     22.44072513	    -18.56842166	     -5.21143552	     82.82627982	     44.21102569	      0.00000000	      0.00000000	     -3.64254645	     -9.88403504	     -7.17806834	     30.61919509	     46.88380237	      0.00000000	      0.00000000
     25.47092857	     -8.27555982	     -4.62199257	      5.97663528	      0.75948069	      0.92631113	      0.50384662	     13.13568598	      2.14685004	    -17.25187266	     14.69649313	     14.69649313	     11.20194694	     -3.47868721	     -4.10045425	     35.57129816	     -7.00355749	      2.03712330	     27.33606367	     27.33606367	      9.66263392	    -14.66509038	     11.74351681	    -12.04140466	      6.15416180	      1.71456771	     23.33549453	    -18.48801429	     -5.23794430	     84.23323124	     44.18139947	      0.00000000	      0.00000000	     -3.95117313	     -9.82117709	     -7.19243853	     30.83621314	     46.87196367	      0.00000000	      0.00000000
     25.48400000	     -8.36839923	     -4.60741335	      6.19547718	      0.75882433	      0.92579842	      0.50252843	     12.86517197	      2.03962786	    -17.34625634	     14.82604921	     14.82604921	     11.54296716	     -3.57911597	     -4.14098137	     35.40948019	     -6.67408969	      2.06300412	     24.11561294	     24.11561294	      9.79491508	    -12.95458688	     11.76495656	    -12.03652359	      6.15121504	      1.67198365	     24.23077613	    -18.38264930	     -5.23654266	     85.81705295	     44.14543815	      0.00000000	      0.00000000	     -4.27553348	     -9.72790498	     -7.21382066	     31.19120934	     46.86080846	      0.00000000	      0.00000000
     25.49707143	     -8.37964272	     -4.65271868	      6.38364179	      0.75840330	      0.92525593	      0.50109947	     12.50317038	      2.00124405	    -17.47360486	     14.97101572	     14.97101572	     11.96069204	     -3.60947908	     -4.08637881	     35.25741924	     -6.46902053	      1.91477249	     21.49676006	     21.49676006	      9.86504771	    -11.35618332	     11.61378756	    -12.09929300	      6.25026011	      1.65827025	     25.01546838	    -18.28161796	     -5.19446467	     88.00128010	     44.09874611	      0.00000000	      0.00000000	     -4.71091057	     -9.62711766	     -7.25608241	     31.98040632	     46.84405957	      0.00000000	      0.00000000
     25.51014286	     -8.39623715	     -4.66969681	      6.49380119	      0.75824370	      0.92470357	      0.49964021	     12.10355505	      1.95376206	    -17.50713046	     15.06252317	     15.06252317	     12.35954021	     -3.66403941	     -4.04529448	     35.13203540	     -6.29770594	      1.64534877	     19.44071909	     19.44071909	      9.88365149	    -10.12803715	     11.66299781	    -12.09352756	      6.26840015	      1.72042840	     25.83538502	    -18.12706654	     -5.17406713	     89.62541003	     44.06782646	      0.00000000	      0.00000000	     -5.03579871	     -9.52931922	     -7.23722629	     32.56658253	     46.82389974	      0.00000000	      0.00000000
     25.52321429	     -8.39856804	     -4.77504764	      6.57144855	      0.75833282	      0.92402846	      0.49807523	     11.66481341	      2.00524570	    -17.54244144	     15.13541428	     15.13541428	     12.84061743	     -3.57564125	     -3.80156836	     35.11770357	     -6.25808176	      1.33710226	     18.10332902	     18.10332902	      9.77763180	     -9.20890453	     11.41321522	    -12.04870948	      6.41292321	      1.88829014	     26.53722641	    -18.08204708	     -5.15108653	     91.77883441	     44.04934396	      0.00000000	      0.00000000	     -5.53778037	     -9.43779857	     -7.10517241	     33.80247748	     46.76880414	      0.00000000	      0.00000000
     25.53628571	     -8.40579879	     -4.85201891	      6.56950347	      0.75863917	      0.92335623	      0.49646805	     11.19876602	      2.04363448	    -17.47874432	     15.15994179	     15.15994179	     13.21110718	     -3.59032063	     -3.86845752	     35.10425149	     -6.23016220	      1.05836167	     17.32410053	     17.32410053	      9.63747355	     -8.85740562	     11.51343831	    -11.87484829	      6.49176425	      2.04818132	     27.59561419	    -17.85636520	     -5.16784147	     92.58397954	     44.03601638	      0.00000000	      0.00000000	     -5.61777601	     -9.28785043	     -7.02268661	     33.91173849	     46.75210893	      0.00000000	      0.00000000
     25.54935714	     -8.29883340	     -4.88506954	      6.53042558	      0.75939230	      0.92283372	      0.49475972	     10.49892218	      2.07105469	    -17.40546543	     15.04321826	     15.04321826	     13.62959624	     -3.47449151	     -3.81415259	     34.91007264	     -6.24747818	      0.61705455	     16.99451291	     16.99451291	      9.34937705	     -8.69549364	     11.28733998	    -11.83847522	      6.52309402	      1.91175906	     28.49472279	    -17.27292405	     -4.97569364	     94.17431929	     44.00026444	      0.00000000	      0.00000000	     -5.98124956	     -9.24780756	     -6.90006106	     34.25971290	     46.72081319	      0.00000000	      0.00000000
     25.56242857	     -8.25399000	     -4.99490021	      6.41745200	      0.76039166	      0.92207019	      0.49303094	      9.82871779	      2.17956566	    -17.29706696	     14.87043273	     14.87043273	     14.08522100	     -3.22937213	     -3.66890727	     34.82827381	     -6.38827810	      0.23190865	     17.19713736	     17.19713736	      8.78844132	     -8.87445200	     10.53516591	    -11.65201349	      6.62180085	      2.01505444	     29.26808426	    -16.96780921	     -4.74952427	     95.77400807	     43.97537241	      0.00000000	      0.00000000	     -6.35069740	     -9.17429915	     -6.71022288	     35.02690614	     46.67591061	      0.00000000	      0.00000000
     25.57550000	     -8.17460047	     -5.11931828	      6.19924239	      0.76167067	      0.92125715	      0.49138944	      9.09499375	      2.32827861	    -17.13829922	     14.67308830	     14.67308830	     14.55228739	     -2.98527586	     -3.54296181	     34.65045671	     -6.62927072	     -0.12543581	     17.71948407	     17.71948407	      8.04884300	     -9.32054407	      9.70962844	    -11.46901439	      6.65497326	      2.14436661	     30.06614108	    -16.60928642	     -4.57610254	     97.04970021	     43.96154763	      0.00000000	      0.00000000	     -6.66743519	     -9.12411922	     -6.48225895	     35.58156409	     46.62903970	      0.00000000	      0.00000000
     25.58857143	     -8.13107366	     -5.11750286	      5.88072716	      0.76327215	      0.92036619	      0.48961356	      8.41816369	      2.30997216	    -16.79674059	     14.58669326	     14.58669326	     14.98141761	     -2.80366911	     -3.61876492	     34.36994729	     -6.79459684	     -0.55631185	     18.41409135	     18.41409135	      7.51677624	     -9.79129128	      9.64674636	    -11.12787851	      6.56202162	      2.50013842	     30.84487026	    -16.36018064	     -4.51574987	     97.56065501	     43.95098200	      0.00000000	      0.00000000	     -6.71730251	     -9.04999657	     -6.42849851	     35.67065113	     46.61945944	      0.00000000	      0.00000000
